<svg width="34" height="34" viewBox="0 0 34 34" fill="none" xmlns="http://www.w3.org/2000/svg">
<path d="M10.081 14.2488C9.48317 14.2488 8.97931 14.0434 8.56942 13.6326C8.15953 13.2218 7.95506 12.7278 7.956 12.1508C7.956 11.5586 8.16047 11.0519 8.56942 10.6307C8.97931 10.2095 9.48317 9.99884 10.081 9.99884C10.6779 9.99884 11.1813 10.208 11.5912 10.6264C12.0011 11.0448 12.206 11.5482 12.206 12.1366C12.206 12.725 12.0011 13.2241 11.5912 13.634C11.1813 14.0439 10.6779 14.2488 10.081 14.2488ZM7.956 29.75C7.55461 29.75 7.21792 29.605 6.94592 29.3151C6.67392 29.0251 6.53839 28.6795 6.53933 28.2781C5.88672 28.2781 5.34225 28.0491 4.90592 27.591C4.46958 27.133 4.25094 26.5814 4.25 25.9363V19.6152H7.956V18.5258C7.956 17.7919 8.21289 17.1591 8.72667 16.6274C9.24044 16.0957 9.86378 15.8294 10.5967 15.8284C11.033 15.8284 11.4429 15.9276 11.8263 16.1259C12.2098 16.3243 12.5488 16.5887 12.8435 16.9193L14.2814 18.5966C14.4703 18.7911 14.6531 18.973 14.8297 19.142C15.0063 19.3111 15.2013 19.4688 15.4147 19.6152H25.5V7.63584C25.5 7.10506 25.3229 6.64465 24.9688 6.25459C24.6146 5.86453 24.1816 5.66856 23.6697 5.66667C23.4251 5.66667 23.1908 5.71862 22.967 5.82251C22.7432 5.92734 22.5448 6.06617 22.372 6.23901L20.6012 8.05092C20.7192 8.46176 20.7428 8.86645 20.672 9.26501C20.6012 9.66356 20.4595 10.0366 20.247 10.3842L17.3315 7.39926C17.6621 7.18109 18.0162 7.04179 18.394 6.98134C18.7718 6.9209 19.1496 6.9634 19.5273 7.10884L21.2982 5.28984C21.6146 4.96401 21.9753 4.70901 22.3805 4.52484C22.7857 4.34067 23.2154 4.24906 23.6697 4.25001C24.5811 4.25001 25.3503 4.58056 25.9774 5.24167C26.6045 5.90279 26.9176 6.70037 26.9167 7.63442V19.6152H29.75V25.9363C29.75 26.5805 29.5318 27.132 29.0955 27.591C28.6592 28.05 28.1147 28.2795 27.4621 28.2795C27.4621 28.6809 27.3261 29.0261 27.0541 29.3151C26.7821 29.6041 26.4454 29.7491 26.044 29.75H7.956ZM6.53933 26.8614H27.4621C27.7161 26.8614 27.9249 26.7708 28.0882 26.5894C28.2516 26.4081 28.3333 26.1904 28.3333 25.9363V21.0318H5.66667V25.9363C5.66667 26.1904 5.74836 26.4081 5.91175 26.5894C6.07514 26.7717 6.28433 26.8614 6.53933 26.8614ZM6.53933 26.8614L5.66667 26.8628H28.3333L6.53933 26.8614Z" fill="#B50D0D"/>
</svg>
