<svg width="48" height="48" viewBox="0 0 48 48" fill="none" xmlns="http://www.w3.org/2000/svg">
<mask id="mask0_433_2091" style="mask-type:alpha" maskUnits="userSpaceOnUse" x="10" y="4" width="30" height="40">
<path fill-rule="evenodd" clip-rule="evenodd" d="M29.6094 8.78906H20.3306C19.8018 8.78906 19.5923 8.57954 19.5923 8.04077V4.74829C19.5923 4.20952 19.8018 4 20.3406 4H24.98H29.5795C30.1582 4 30.3577 4.19954 30.3577 4.7882V8.04077C30.3577 8.57954 30.1482 8.78906 29.6094 8.78906ZM13.6459 29.2124C15.3321 29.4618 16.6391 30.6691 17.0581 32.3153L17.0881 32.4363C17.118 32.5579 17.1479 32.6795 17.1778 32.7842C17.3185 32.7256 17.458 32.6681 17.5964 32.6111L17.5969 32.6109C18.0476 32.4252 18.4866 32.2443 18.9139 32.0459C19.0136 32.006 19.1034 31.8564 19.1234 31.7366C19.4227 29.6414 19.5923 27.5262 19.5923 25.4011V14.0271V13.608H20.7896V13.8974C20.7896 14.8804 20.7902 15.8629 20.7908 16.845V16.8455C20.7927 19.7905 20.7946 22.7327 20.7796 25.6805C20.7796 26.7181 20.7198 27.7457 20.6499 28.7834C20.613 29.3738 20.5534 29.9604 20.4943 30.5409L20.4943 30.541L20.4943 30.541L20.4943 30.5411C20.4576 30.9022 20.4211 31.261 20.3905 31.6169C23.4635 31.4972 26.5265 31.4972 29.5097 31.6169C29.4751 30.9975 29.4336 30.3771 29.392 29.7557L29.392 29.7556C29.3016 28.4052 29.2109 27.0502 29.1904 25.6904C29.1541 22.8457 29.1601 19.9957 29.166 17.1481V17.1471V17.1461V17.1451C29.1682 16.0787 29.1704 15.0126 29.1704 13.9473V13.5981H30.3677V14.057V25.431C30.3677 27.5462 30.5273 29.6414 30.8267 31.7267C30.8466 31.8364 30.9065 31.9861 30.9963 32.026C31.3253 32.171 31.6543 32.3097 31.9851 32.4492C32.2461 32.5593 32.5082 32.6698 32.7722 32.7842C32.7758 32.7735 32.7819 32.7627 32.7884 32.7515C32.7998 32.7315 32.8121 32.71 32.8121 32.6845C33.2012 30.7389 34.3985 29.5616 36.364 29.1825C36.4937 29.1525 36.6534 29.0428 36.7232 28.9231C37.1223 28.2247 37.3817 27.4764 37.4715 26.6682C37.6511 25.0818 37.5014 23.4955 37.1921 21.949C36.8289 20.1813 36.4134 18.4267 35.9986 16.6746L35.9985 16.6743L35.9983 16.6734L35.9981 16.6725L35.9979 16.6715C35.9001 16.2589 35.8025 15.8464 35.7055 15.4339C35.6257 15.0747 35.5159 14.7055 35.3364 14.3863C35.0271 13.8675 34.5382 13.618 33.9296 13.5981V17.15H32.7822C32.7784 17.1309 32.7746 17.1162 32.7713 17.1037C32.7661 17.0834 32.7622 17.0687 32.7622 17.0502V14.2865C32.7523 13.1491 32.004 12.3908 30.8566 12.3908H27.1551H19.0735C18.2354 12.3908 17.557 12.8398 17.3075 13.5881C17.2277 13.8275 17.2078 14.0969 17.1978 14.3563C17.1912 14.9745 17.1934 15.597 17.1956 16.221V16.2211V16.2212V16.2213C17.1967 16.5339 17.1978 16.8469 17.1978 17.1599H16.0205V13.638C15.2622 13.608 14.5638 14.1568 14.3543 14.9749C14.1547 15.7731 13.9652 16.5713 13.7856 17.3695C13.676 17.8505 13.5606 18.3302 13.4453 18.8099L13.4453 18.8099L13.4452 18.81L13.4452 18.81C12.9935 20.6885 12.542 22.566 12.4387 24.5131C12.3489 26.0297 12.4287 27.5063 13.177 28.8732C13.2768 29.0627 13.3965 29.1725 13.6459 29.2124ZM39.8959 33.0636C39.8261 32.1856 39.3871 31.4473 38.6687 30.9285C37.7309 30.2401 36.7132 30.1403 35.6656 30.6391C34.598 31.148 34.0293 32.036 33.9595 33.2133C33.9481 33.4289 33.9526 33.6475 33.957 33.8662C33.9643 34.2241 33.9715 34.5825 33.9096 34.9293C33.5704 36.9747 31.8842 37.8128 29.779 37.4735V36.3262C29.9202 36.3262 30.0579 36.3273 30.1938 36.3284L30.1951 36.3284C30.4621 36.3306 30.722 36.3328 30.9863 36.3262C31.984 36.2962 32.7622 35.508 32.7423 34.5203C32.7423 34.3806 32.6425 34.1811 32.5228 34.1112C31.2157 33.2532 29.7691 32.7743 28.1927 32.7543C26.0376 32.7244 23.8825 32.7244 21.7174 32.7543C20.151 32.7743 18.7043 33.2632 17.3973 34.1212C17.2876 34.191 17.1878 34.3706 17.1878 34.5003C17.1579 35.508 17.9461 36.3062 18.9538 36.3361C19.2185 36.3428 19.4789 36.3406 19.7437 36.3384H19.7438H19.744H19.7442C19.8783 36.3373 20.0135 36.3361 20.151 36.3361V37.5334C19.9987 37.5334 19.8509 37.5345 19.7062 37.5357L19.7051 37.5357C19.4237 37.5379 19.1538 37.54 18.8839 37.5334C17.4871 37.4935 16.2799 36.4958 16.0504 35.1189C15.983 34.6999 15.983 34.2696 15.9831 33.8365C15.9831 33.6922 15.9831 33.5475 15.9806 33.4028C15.9606 31.7965 14.8032 30.4995 13.2568 30.3698C11.7303 30.2301 10.3235 31.3276 10.074 32.9139C9.99296 33.441 9.99755 33.9813 10.0021 34.5186C10.0032 34.6425 10.0042 34.7661 10.0042 34.8894C10.0042 37.1443 11.5906 38.7207 13.8654 38.7207H21.8372H36.2044C38.11 38.7207 39.6265 37.4536 39.8859 35.5679C39.9857 34.7398 39.9558 33.8917 39.8959 33.0636ZM27.9532 11.1537V10.0063H22.0068V11.1537H27.9532ZM34.5778 43.0843C34.666 43.0761 34.7574 43.0676 34.8076 43.1106C34.9472 43.2204 35.1368 43.39 35.1268 43.5397C35.1268 43.6794 34.9472 43.8589 34.7976 43.9587C34.7317 44.01 34.6229 44.0021 34.5144 43.9943C34.475 43.9915 34.4357 43.9886 34.3985 43.9886H15.5516H15.4817C15.0228 43.9886 14.8033 43.839 14.8132 43.5297C14.8232 43.2304 15.0327 43.0907 15.4717 43.0907H18.9837H19.4427V39.4191H30.5074V43.0907H30.9264H34.4783C34.5092 43.0907 34.5433 43.0875 34.5778 43.0843Z" fill="black"/>
</mask>
<g mask="url(#mask0_433_2091)">
<rect width="48" height="48" fill="#78AC66"/>
</g>
</svg>
