<svg version="1.2" xmlns="http://www.w3.org/2000/svg" viewBox="0 0 1500 1000" width="1500" height="1000">
	<style>
		.s0 { fill: #ebcca2 } 
		.s1 { fill: #ffbe1a } 
		.s2 { fill: #deb680 } 
		.s3 { fill: #9e7949 } 
		.s4 { fill: #cca776 } 
		.s5 { fill: #574834 } 
		.s6 { fill: #c49e6a } 
		.s7 { fill: #d4ac74 } 
		.s8 { fill: #211f1d } 
		.s9 { fill: #33302d } 
		.s10 { fill: #e09e43 } 
		.s11 { fill: #c2893a } 
		.s12 { fill: none;stroke: #b3a79e;stroke-miterlimit:10;stroke-width: 1.8 } 
		.s13 { fill: #a67532 } 
		.s14 { fill: none;stroke: #ebba76;stroke-miterlimit:10;stroke-width: 1.1 } 
		.s15 { fill: #b88134 } 
		.s16 { fill: #875f29 } 
		.s17 { fill: none;stroke: #8c837c;stroke-miterlimit:10;stroke-width: 1.8 } 
		.s18 { fill: none;stroke: #d69b47;stroke-miterlimit:10;stroke-width: 1.1 } 
		.s19 { fill: #b3a79e } 
		.s20 { fill: #8c837c } 
		.s21 { fill: #ffffff } 
		.s22 { fill: #b89564 } 
		.s23 { fill: #bababa } 
		.s24 { fill: #e3e3e3 } 
		.s25 { fill: #757575 } 
		.s26 { fill: #ff9999 } 
		.s27 { fill: none;stroke: #b55757;stroke-miterlimit:10;stroke-width: 1 } 
		.s28 { fill: none;stroke: #bababa;stroke-miterlimit:10;stroke-width: 1 } 
		.s29 { fill: none;stroke: #000000;stroke-miterlimit:10;stroke-width: 1.5 } 
		.s30 { fill: #000000 } 
		.s31 { fill: none;stroke: #b55757;stroke-miterlimit:10;stroke-width: 1.1 } 
		.s32 { fill: #203140 } 
		.s33 { fill: #d6745e } 
		.s34 { fill: #eb9d7a } 
		.s35 { fill: none;stroke: #bababa;stroke-miterlimit:10;stroke-width: 1.5 } 
		.s36 { fill: none;stroke: #a65a49;stroke-miterlimit:10 } 
		.s37 { fill: none;stroke: #203140;stroke-miterlimit:10;stroke-width: 2 } 
		.s38 { fill: none;stroke: #e3e3e3;stroke-miterlimit:10;stroke-width: 1.5 } 
		.s39 { fill: #403620 } 
		.s40 { fill: #c96161 } 
		.s41 { fill: #d47878 } 
		.s42 { fill: #ff9191 } 
		.s43 { fill: none;stroke: #784141;stroke-miterlimit:10;stroke-width: .9 } 
		.s44 { fill: none;stroke: #403620;stroke-miterlimit:10;stroke-width: 1.5 } 
		.s45 { fill: none;stroke: #784141;stroke-miterlimit:10;stroke-width: .5 } 
	</style>
	<g id="OBJECTS">
		<g id="&lt;Group&gt;">
			<path id="&lt;Path&gt;" class="s0" d="m1059.46 260.53h-232.54c-67.51 0-132.36-27.73-177.93-77.54-44.31-48.42-108.02-78.8-178.84-78.8-133.86 0-242.37 108.52-242.37 242.38v396.94h419.89 64.86 559.13v-270.78c0-117.2-95-212.2-212.2-212.2z"/>
			<g id="&lt;Group&gt;">
				<g id="&lt;Group&gt;">
					<path id="&lt;Path&gt;" class="s1" d="m1070.09 204.02h-18.43v-5.17c0-5.09 4.13-9.22 9.22-9.22 5.08 0 9.21 4.13 9.21 9.22z"/>
					<path id="&lt;Path&gt;" class="s1" d="m1060.88 191.69c-3.76 0-6.8-3.05-6.8-6.8v-3.18c0-3.76 3.04-6.8 6.8-6.8 3.75 0 6.79 3.04 6.79 6.8v3.18c0 3.75-3.04 6.8-6.79 6.8z"/>
					<g id="&lt;Group&gt;">
						<path id="&lt;Path&gt;" class="s1" d="m1065.04 151.96q0.08 0.4 0.08 0.83c0 2.35-1.9 4.25-4.24 4.25-2.35 0-4.25-1.9-4.25-4.25q0-0.43 0.09-0.83c-0.39 0.69-0.62 1.47-0.62 2.31 0 2.64 2.14 4.77 4.78 4.77 2.63 0 4.77-2.13 4.77-4.77 0-0.84-0.23-1.62-0.61-2.31z"/>
						<g id="&lt;Group&gt;">
							<path id="&lt;Path&gt;" class="s1" d="m1062.69 173.6c0 1-0.81 1.81-1.81 1.81-1.01 0-1.82-0.81-1.82-1.81 0-1.01 0.81-1.82 1.82-1.82 1 0 1.81 0.81 1.81 1.82z"/>
							<path id="&lt;Path&gt;" class="s1" d="m1062.69 170.58c0 1-0.81 1.81-1.81 1.81-1.01 0-1.82-0.81-1.82-1.81 0-1 0.81-1.82 1.82-1.82 1 0 1.81 0.82 1.81 1.82z"/>
							<path id="&lt;Path&gt;" class="s1" d="m1062.69 160.37c0 1.01-0.81 1.82-1.81 1.82-1.01 0-1.82-0.81-1.82-1.82 0-1 0.81-1.81 1.82-1.81 1 0 1.81 0.81 1.81 1.81z"/>
							<path id="&lt;Path&gt;" class="s1" d="m1060.88 169.42c-0.92 0-1.65-0.74-1.65-1.65v-4.79c0-0.92 0.73-1.65 1.65-1.65 0.91 0 1.65 0.73 1.65 1.65v4.79c0 0.91-0.74 1.65-1.65 1.65z"/>
						</g>
					</g>
					<path id="&lt;Path&gt;" class="s2" d="m1078.65 444.06h-35.55v-190.1h35.55z"/>
					<path id="&lt;Path&gt;" class="s0" d="m1068.35 444.06h-14.94v-190.1h14.94z"/>
					<path id="&lt;Path&gt;" class="s3" d="m1078.65 444.06h-35.55l-18.59 8.13h72.73z"/>
					<path id="&lt;Path&gt;" class="s4" d="m1068.35 444.06h-14.94l-7.81 8.13h30.56z"/>
					<path id="&lt;Path&gt;" class="s5" d="m1089.26 455.85h-56.77l-7.98-3.66h72.73z"/>
					<path id="&lt;Path&gt;" class="s2" d="m1089.33 512.59h-56.73v-56.74h56.73z"/>
					<path id="&lt;Path&gt;" class="s4" d="m1089.33 512.59h-56.73l8.68 10.83h39.37z"/>
					<path id="&lt;Path&gt;" class="s2" d="m1074.93 512.59h-27.93l4.27 10.83h19.39z"/>
					<path id="&lt;Path&gt;" class="s0" d="m1074.93 512.59h-27.93v-56.74h27.93z"/>
					<path id="&lt;Path&gt;" class="s5" d="m1072.28 491.01h-22.63v-32.2h22.63z"/>
					<path id="&lt;Path&gt;" class="s5" d="m1089.33 491.01h-12.01v-32.2h12.01z"/>
					<path id="&lt;Path&gt;" class="s5" d="m1044.61 491.01h-12.01v-32.2h12.01z"/>
					<path id="&lt;Path&gt;" class="s5" d="m1083.09 208.82h-44.43l-6.24-2.86h56.91z"/>
					<path id="&lt;Path&gt;" class="s2" d="m1083.14 246.83h-44.39v-38.01h44.39z"/>
					<path id="&lt;Path&gt;" class="s0" d="m1071.88 246.83h-21.86v-38.01h21.86z"/>
					<path id="&lt;Path&gt;" class="s5" d="m1069.8 236.33h-17.71v-25.19h17.71z"/>
					<path id="&lt;Path&gt;" class="s5" d="m1083.14 236.33h-9.39v-25.19h9.39z"/>
					<path id="&lt;Path&gt;" class="s5" d="m1048.15 236.33h-9.4v-25.19h9.4z"/>
					<path id="&lt;Path&gt;" class="s6" d="m1080.69 586.2h-39.41v-62.78h39.41z"/>
					<path id="&lt;Path&gt;" class="s3" d="m1089.33 205.96h-56.91l20.45-4.63h16.01z"/>
					<path id="&lt;Path&gt;" class="s4" d="m1071.88 205.96h-22l7.9-4.63h6.19z"/>
					<path id="&lt;Path&gt;" class="s4" d="m1078.44 254.39h-34.99l-4.7-7.56h44.39z"/>
					<path id="&lt;Path&gt;" class="s2" d="m1068.49 254.39h-15.09l-3.38-7.56h21.86z"/>
				</g>
				<g id="&lt;Group&gt;">
					<path id="&lt;Path&gt;" class="s1" d="m448.34 204.02h-18.43v-5.17c0-5.09 4.13-9.22 9.21-9.22 5.09 0 9.22 4.13 9.22 9.22z"/>
					<path id="&lt;Path&gt;" class="s1" d="m439.12 191.69c-3.75 0-6.79-3.05-6.79-6.8v-3.18c0-3.76 3.04-6.8 6.79-6.8 3.76 0 6.8 3.04 6.8 6.8v3.18c0 3.75-3.04 6.8-6.8 6.8z"/>
					<g id="&lt;Group&gt;">
						<path id="&lt;Path&gt;" class="s1" d="m443.28 151.96q0.09 0.4 0.09 0.83c0 2.35-1.9 4.25-4.25 4.25-2.34 0-4.24-1.9-4.24-4.25q0-0.43 0.08-0.83c-0.38 0.69-0.61 1.47-0.61 2.31 0 2.64 2.14 4.77 4.77 4.77 2.64 0 4.78-2.13 4.78-4.77 0-0.84-0.23-1.62-0.62-2.31z"/>
						<g id="&lt;Group&gt;">
							<path id="&lt;Path&gt;" class="s1" d="m440.94 173.6c0 1-0.81 1.81-1.82 1.81-1 0-1.81-0.81-1.81-1.81 0-1.01 0.81-1.82 1.81-1.82 1.01 0 1.82 0.81 1.82 1.82z"/>
							<path id="&lt;Path&gt;" class="s1" d="m440.94 170.58c0 1-0.81 1.81-1.82 1.81-1 0-1.81-0.81-1.81-1.81 0-1 0.81-1.82 1.81-1.82 1.01 0 1.82 0.82 1.82 1.82z"/>
							<path id="&lt;Path&gt;" class="s1" d="m440.94 160.37c0 1.01-0.81 1.82-1.82 1.82-1 0-1.81-0.81-1.81-1.82 0-1 0.81-1.81 1.81-1.81 1.01 0 1.82 0.81 1.82 1.81z"/>
							<path id="&lt;Path&gt;" class="s1" d="m439.12 169.42c-0.91 0-1.65-0.74-1.65-1.65v-4.79c0-0.92 0.74-1.65 1.65-1.65 0.92 0 1.65 0.73 1.65 1.65v4.79c0 0.91-0.73 1.65-1.65 1.65z"/>
						</g>
					</g>
					<path id="&lt;Path&gt;" class="s2" d="m456.9 444.06h-35.55v-190.1h35.55z"/>
					<path id="&lt;Path&gt;" class="s0" d="m446.59 444.06h-14.94v-190.1h14.94z"/>
					<path id="&lt;Path&gt;" class="s3" d="m456.9 444.06h-35.55l-18.59 8.13h72.73z"/>
					<path id="&lt;Path&gt;" class="s4" d="m446.59 444.06h-14.94l-7.81 8.13h30.56z"/>
					<path id="&lt;Path&gt;" class="s5" d="m467.51 455.85h-56.77l-7.98-3.66h72.73z"/>
					<path id="&lt;Path&gt;" class="s2" d="m467.58 512.59h-56.73v-56.74h56.73z"/>
					<path id="&lt;Path&gt;" class="s4" d="m467.58 512.59h-56.73l8.68 10.83h39.37z"/>
					<path id="&lt;Path&gt;" class="s2" d="m453.18 512.59h-27.93l4.27 10.83h19.39z"/>
					<path id="&lt;Path&gt;" class="s0" d="m453.18 512.59h-27.93v-56.74h27.93z"/>
					<path id="&lt;Path&gt;" class="s5" d="m450.53 491.01h-22.63v-32.2h22.63z"/>
					<path id="&lt;Path&gt;" class="s5" d="m467.58 491.01h-12.01v-32.2h12.01z"/>
					<path id="&lt;Path&gt;" class="s5" d="m422.86 491.01h-12.01v-32.2h12.01z"/>
					<path id="&lt;Path&gt;" class="s5" d="m461.34 208.82h-44.43l-6.24-2.86h56.91z"/>
					<path id="&lt;Path&gt;" class="s2" d="m461.39 246.83h-44.39v-38.01h44.39z"/>
					<path id="&lt;Path&gt;" class="s0" d="m450.12 246.83h-21.85v-38.01h21.85z"/>
					<path id="&lt;Path&gt;" class="s5" d="m448.05 236.33h-17.71v-25.19h17.71z"/>
					<path id="&lt;Path&gt;" class="s5" d="m461.39 236.33h-9.4v-25.19h9.4z"/>
					<path id="&lt;Path&gt;" class="s5" d="m426.4 236.33h-9.4v-25.19h9.4z"/>
					<path id="&lt;Path&gt;" class="s6" d="m458.94 586.2h-39.41v-62.78h39.41z"/>
					<path id="&lt;Path&gt;" class="s3" d="m467.58 205.96h-56.91l20.45-4.63h16.01z"/>
					<path id="&lt;Path&gt;" class="s4" d="m450.12 205.96h-22l7.91-4.63h6.19z"/>
					<path id="&lt;Path&gt;" class="s4" d="m456.69 254.39h-34.99l-4.7-7.56h44.39z"/>
					<path id="&lt;Path&gt;" class="s2" d="m446.74 254.39h-15.09l-3.38-7.56h21.85z"/>
				</g>
			</g>
			<path id="&lt;Path&gt;" class="s7" d="m1356.92 781.14c0 55.03-271.73 99.65-606.92 99.65-335.19 0-606.92-44.62-606.92-99.65 0-55.03 271.73-99.65 606.92-99.65 335.19 0 606.92 44.62 606.92 99.65z"/>
			<g id="&lt;Group&gt;">
				<g id="&lt;Group&gt;">
					<g id="&lt;Group&gt;">
						<path id="&lt;Path&gt;" class="s7" d="m559.47 606.35l-257.02-24.05v-108.42l257.02 43.84z"/>
						<path id="&lt;Path&gt;" class="s3" d="m559.48 517.72l-257.03-43.84v-23.25l257.03 48.09z"/>
					</g>
					<g id="&lt;Group&gt;">
						<path id="&lt;Path&gt;" class="s7" d="m559.47 713.98h-257.02v-108.43l257.02 19.8z"/>
						<path id="&lt;Path&gt;" class="s3" d="m559.48 625.35l-257.03-19.8v-23.25l257.03 24.05z"/>
					</g>
					<g id="&lt;Group&gt;">
						<path id="&lt;Path&gt;" class="s5" d="m559.47 654.34l-257.02-13.32v-35.47l257.02 19.8z"/>
					</g>
					<g id="&lt;Group&gt;">
						<path id="&lt;Path&gt;" class="s8" d="m353.75 516.8v-2.93c0-7.37-3.7-14.86-9.96-20.12l-6.13-5.13-6.18 3.15c-6.43 3.28-10.29 9.75-10.29 17.29v3l-4.97-0.72v72.25l42.23 3.95v-70.06z"/>
						<path id="&lt;Path&gt;" class="s8" d="m407.74 524.65v-2.82c0-7.07-3.42-14.25-9.19-19.25l-5.64-4.89-5.69 3.06c-5.93 3.19-9.48 9.42-9.48 16.66v2.88l-4.56-0.67v69.3l38.89 3.64v-67.28z"/>
						<path id="&lt;Path&gt;" class="s8" d="m457.59 531.9v-2.71c0-6.81-3.16-13.69-8.49-18.46l-5.22-4.67-5.26 2.98c-5.47 3.1-8.75 9.1-8.75 16.06v2.77l-4.22-0.62v66.58l35.95 3.36v-64.71z"/>
						<path id="&lt;Path&gt;" class="s8" d="m503.76 538.61v-2.61c0-6.55-2.92-13.16-7.87-17.73l-4.84-4.46-4.87 2.9c-5.07 3.01-8.11 8.81-8.11 15.5v2.66l-3.9-0.56v64.06l33.31 3.11v-62.33z"/>
						<path id="&lt;Path&gt;" class="s8" d="m546.66 544.84v-2.51c0-6.32-2.73-12.68-7.33-17.06l-4.49-4.27-4.53 2.82c-4.71 2.93-7.53 8.53-7.53 14.99v2.56l-3.63-0.52v61.72l30.97 2.9v-60.12z"/>
					</g>
					<g id="&lt;Group&gt;">
						<path id="&lt;Path&gt;" class="s8" d="m353.75 643.68v-2.94c0-7.37-3.7-14.51-9.96-19.18l-6.13-4.56-6.18 3.73c-6.43 3.88-10.29 10.71-10.29 18.26v3l-4.97-0.26v72.25h42.23v-70.06z"/>
						<path id="&lt;Path&gt;" class="s8" d="m407.74 646.47v-2.81c0-7.08-3.42-13.93-9.19-18.39l-5.64-4.37-5.69 3.6c-5.93 3.74-9.48 10.3-9.48 17.54v2.88l-4.56-0.24v69.3h38.89v-67.28z"/>
						<path id="&lt;Path&gt;" class="s8" d="m457.59 649.06v-2.71c0-6.81-3.16-13.39-8.49-17.66l-5.22-4.19-5.26 3.48c-5.47 3.61-8.75 9.92-8.75 16.87v2.77l-4.22-0.22v66.58h35.95v-64.71z"/>
						<path id="&lt;Path&gt;" class="s8" d="m503.76 651.45v-2.61c0-6.55-2.92-12.88-7.87-16.99l-4.84-4.01-4.87 3.35c-5.07 3.49-8.11 9.57-8.11 16.27v2.66l-3.9-0.2v64.06h33.31v-62.34z"/>
						<path id="&lt;Path&gt;" class="s8" d="m546.66 653.67v-2.51c0-6.32-2.73-12.42-7.33-16.37l-4.49-3.86-4.53 3.25c-4.71 3.37-7.53 9.24-7.53 15.69v2.57l-3.63-0.19v61.73h30.97v-60.13z"/>
					</g>
				</g>
				<g id="&lt;Group&gt;">
					<g id="&lt;Group&gt;">
						<path id="&lt;Path&gt;" class="s7" d="m939.96 606.35l257.03-24.05v-108.42l-257.03 43.84z"/>
						<path id="&lt;Path&gt;" class="s3" d="m939.95 517.72l257.04-43.84v-23.25l-257.04 48.09z"/>
					</g>
					<g id="&lt;Group&gt;">
						<path id="&lt;Path&gt;" class="s7" d="m939.96 713.98h257.03v-108.43l-257.03 19.8z"/>
						<path id="&lt;Path&gt;" class="s3" d="m939.95 625.35l257.04-19.8v-23.25l-257.04 24.05z"/>
					</g>
					<g id="&lt;Group&gt;">
						<path id="&lt;Path&gt;" class="s5" d="m939.96 654.34l257.03-13.32v-35.47l-257.03 19.8z"/>
					</g>
					<g id="&lt;Group&gt;">
						<path id="&lt;Path&gt;" class="s8" d="m1145.68 516.8v-2.93c0-7.37 3.71-14.86 9.97-20.12l6.12-5.13 6.19 3.15c6.43 3.28 10.29 9.75 10.29 17.29v3l4.96-0.72v72.25l-42.22 3.95v-70.06z"/>
						<path id="&lt;Path&gt;" class="s8" d="m1091.7 524.65v-2.82c0-7.07 3.41-14.25 9.18-19.25l5.65-4.89 5.69 3.06c5.92 3.19 9.48 9.42 9.48 16.66v2.88l4.56-0.67v69.3l-38.89 3.64v-67.28z"/>
						<path id="&lt;Path&gt;" class="s8" d="m1041.85 531.9v-2.71c0-6.81 3.15-13.69 8.49-18.46l5.22-4.67 5.26 2.98c5.47 3.1 8.75 9.1 8.75 16.06v2.77l4.21-0.62v66.58l-35.94 3.36v-64.71z"/>
						<path id="&lt;Path&gt;" class="s8" d="m995.67 538.61v-2.61c0-6.55 2.93-13.16 7.88-17.73l4.83-4.46 4.88 2.9c5.07 3.01 8.1 8.81 8.1 15.5v2.66l3.91-0.56v64.06l-33.32 3.11v-62.33z"/>
						<path id="&lt;Path&gt;" class="s8" d="m952.78 544.84v-2.51c0-6.32 2.72-12.68 7.32-17.06l4.5-4.27 4.53 2.82c4.71 2.93 7.53 8.53 7.53 14.99v2.56l3.62-0.52v61.72l-30.96 2.9v-60.12z"/>
					</g>
					<g id="&lt;Group&gt;">
						<path id="&lt;Path&gt;" class="s8" d="m1145.68 643.68v-2.94c0-7.37 3.71-14.51 9.97-19.18l6.12-4.56 6.19 3.73c6.43 3.88 10.29 10.71 10.29 18.26v3l4.96-0.26v72.25h-42.22v-70.06z"/>
						<path id="&lt;Path&gt;" class="s8" d="m1091.7 646.47v-2.81c0-7.08 3.41-13.93 9.18-18.39l5.65-4.37 5.69 3.6c5.92 3.74 9.48 10.3 9.48 17.54v2.88l4.56-0.24v69.3h-38.89v-67.28z"/>
						<path id="&lt;Path&gt;" class="s8" d="m1041.85 649.06v-2.71c0-6.81 3.15-13.39 8.49-17.66l5.22-4.19 5.26 3.48c5.47 3.61 8.75 9.92 8.75 16.87v2.77l4.21-0.22v66.58h-35.94v-64.71z"/>
						<path id="&lt;Path&gt;" class="s8" d="m995.67 651.45v-2.61c0-6.55 2.93-12.88 7.88-16.99l4.83-4.01 4.88 3.35c5.07 3.49 8.1 9.57 8.1 16.27v2.66l3.91-0.2v64.06h-33.32v-62.34z"/>
						<path id="&lt;Path&gt;" class="s8" d="m952.78 653.67v-2.51c0-6.32 2.72-12.42 7.32-16.37l4.5-3.86 4.53 3.25c4.71 3.37 7.53 9.24 7.53 15.69v2.57l3.62-0.19v61.73h-30.96v-60.13z"/>
					</g>
				</g>
			</g>
			<g id="&lt;Group&gt;">
				<path id="&lt;Path&gt;" class="s9" d="m749.69 714.41h-190.09v-336.72l190.09-53.11z"/>
				<g id="&lt;Group&gt;">
					<path id="&lt;Path&gt;" class="s10" d="m749.69 444.55l-190.09 36.77v-39.69l190.09-43.03z"/>
					<path id="&lt;Path&gt;" class="s11" d="m749.69 392.01l-190.09 43.93v5.69l190.09-43.03z"/>
					<path id="&lt;Path&gt;" class="s11" d="m749.69 444.55l-190.09 36.77v5.69l190.09-35.87z"/>
				</g>
				<g id="&lt;Group&gt;">
					<path id="&lt;Path&gt;" class="s10" d="m567.39 525.5l-7.79 1.22v-23.27l7.79-1.36z"/>
					<path id="&lt;Path&gt;" class="s10" d="m749.69 497.11l-10.29 1.61v-26.74l10.29-1.8z"/>
					<path id="&lt;Path&gt;" class="s10" d="m633.93 515.14l-41.55 6.47v-23.9l41.55-7.27z"/>
					<path id="&lt;Path&gt;" class="s10" d="m708.19 503.58l-46.42 7.23v-25.24l46.42-8.13z"/>
				</g>
				<path id="&lt;Path&gt;" class="s10" d="m584.35 510.99l-4.59 9.58-4.57-8.06 4.57-9.58z"/>
				<path id="&lt;Path&gt;" class="s10" d="m652.82 499.67l-5.12 10.16-5.08-8.47 5.08-10.16z"/>
				<path id="&lt;Path&gt;" class="s10" d="m729.36 487.01l-5.74 10.81-5.7-8.92 5.7-10.8z"/>
				<g id="&lt;Group&gt;">
					<path id="&lt;Path&gt;" class="s12" d="m617.06 594.1v-232.47"/>
					<path id="&lt;Path&gt;" class="s12" d="m679.86 588.11v-244.03"/>
				</g>
				<path id="&lt;Path&gt;" class="s13" d="m742.07 601.55c-7.34 23.91-17.29 38.83-28.12 39.42-10.65 0.57-20.16-12.87-27-34.93-0.3-1-0.58-2.06-0.87-3.09l-12.11 1.01c-0.28 1.07-0.55 2.16-0.85 3.2-6.64 22.7-15.63 36.86-25.42 37.39-9.65 0.52-18.26-12.31-24.46-33.33-0.28-0.95-0.52-1.96-0.79-2.95l-10.99 0.92c-0.25 1.02-0.5 2.06-0.77 3.05-6.02 21.6-14.19 35.07-23.09 35.55-8.77 0.48-16.61-11.78-22.25-31.86-0.26-0.91-0.48-1.88-0.72-2.82l-5.03 0.42v100.88h190.09v-116.79l-6.68 0.56c-0.31 1.13-0.6 2.28-0.94 3.37z"/>
				<g id="&lt;Group&gt;">
					<path id="&lt;Path&gt;" class="s14" d="m559.37 632.11l190.63-13.02"/>
					<path id="&lt;Path&gt;" class="s14" d="m559.37 648.57l190.63-10.42"/>
					<path id="&lt;Path&gt;" class="s14" d="m559.37 665.03l190.63-7.81"/>
					<path id="&lt;Path&gt;" class="s14" d="m559.37 681.49l190.63-5.21"/>
					<path id="&lt;Path&gt;" class="s14" d="m559.37 697.95l190.63-2.6"/>
				</g>
				<path id="&lt;Path&gt;" class="s8" d="m749.74 714.41h190.1v-336.72l-190.1-53.11z"/>
				<g id="&lt;Group&gt;">
					<path id="&lt;Path&gt;" class="s15" d="m749.74 444.55l190.1 36.77v-39.69l-190.1-43.03z"/>
					<path id="&lt;Path&gt;" class="s16" d="m749.74 392.01l190.1 43.93v5.69l-190.1-43.03z"/>
					<path id="&lt;Path&gt;" class="s16" d="m749.74 444.55l190.1 36.77v5.69l-190.1-35.87z"/>
				</g>
				<g id="&lt;Group&gt;">
					<path id="&lt;Path&gt;" class="s15" d="m932.05 525.5l7.79 1.22v-23.27l-7.79-1.36z"/>
					<path id="&lt;Path&gt;" class="s15" d="m749.74 497.11l10.3 1.61v-26.74l-10.3-1.8z"/>
					<path id="&lt;Path&gt;" class="s15" d="m865.51 515.14l41.55 6.47v-23.9l-41.55-7.27z"/>
					<path id="&lt;Path&gt;" class="s15" d="m791.24 503.58l46.43 7.23v-25.24l-46.43-8.13z"/>
				</g>
				<path id="&lt;Path&gt;" class="s15" d="m915.08 510.99l4.6 9.58 4.56-8.06-4.56-9.58z"/>
				<path id="&lt;Path&gt;" class="s15" d="m846.61 499.67l5.13 10.16 5.08-8.47-5.08-10.16z"/>
				<path id="&lt;Path&gt;" class="s15" d="m770.07 487.01l5.75 10.81 5.69-8.92-5.69-10.8z"/>
				<g id="&lt;Group&gt;">
					<path id="&lt;Path&gt;" class="s17" d="m882.38 594.1v-232.47"/>
					<path id="&lt;Path&gt;" class="s17" d="m819.57 588.11v-244.03"/>
				</g>
				<path id="&lt;Path&gt;" class="s16" d="m757.37 601.55c7.34 23.91 17.29 38.83 28.11 39.42 10.66 0.57 20.16-12.87 27-34.93 0.31-1 0.58-2.06 0.87-3.09l12.12 1.01c0.28 1.07 0.55 2.16 0.85 3.2 6.63 22.7 15.63 36.86 25.42 37.39 9.64 0.52 18.25-12.31 24.45-33.33 0.28-0.95 0.53-1.96 0.79-2.95l10.99 0.92c0.26 1.02 0.5 2.06 0.78 3.05 6.02 21.6 14.19 35.07 23.09 35.55 8.77 0.48 16.61-11.78 22.25-31.86 0.26-0.91 0.48-1.88 0.72-2.82l5.03 0.42v100.88h-190.1v-116.79l6.68 0.56c0.32 1.13 0.61 2.28 0.95 3.37z"/>
				<g id="&lt;Group&gt;">
					<path id="&lt;Path&gt;" class="s18" d="m940.07 632.11l-190.63-13.02"/>
					<path id="&lt;Path&gt;" class="s18" d="m940.07 648.57l-190.63-10.42"/>
					<path id="&lt;Path&gt;" class="s18" d="m940.07 665.03l-190.63-7.81"/>
					<path id="&lt;Path&gt;" class="s18" d="m940.07 681.49l-190.63-5.21"/>
					<path id="&lt;Path&gt;" class="s18" d="m940.07 697.95l-190.63-2.6"/>
				</g>
				<path id="&lt;Path&gt;" class="s12" d="m750 582.3l-0.26-257.72"/>
				<path id="&lt;Path&gt;" class="s19" d="m713.95 612.63c-13.22 0.99-25.06-12.19-33.95-34.42-8.77 23.73-20.1 38.47-32.3 39.38-11.97 0.9-22.7-11.7-30.77-32.9-7.95 22.57-18.24 36.57-29.33 37.4-10.89 0.82-20.66-11.24-28-31.51v17.52c0 17.74 1.93 35.07 5.75 48.77 5.64 20.27 13.48 32.8 22.25 32.62 8.9-0.18 17.07-13.38 23.09-34.78 4.13-14.69 6.24-33.08 6.24-51.66 0 18.58 2.13 36.72 6.31 51.07 6.2 21.23 14.81 34.35 24.46 34.15 9.79-0.19 18.78-14.05 25.42-36.52 4.55-15.44 6.88-34.76 6.88-54.27 0 19.52 2.34 38.56 6.95 53.61 6.84 22.29 16.35 36.06 27 35.84 10.83-0.21 20.78-14.8 28.12-38.46 5.04-16.26 7.62-36.6 7.62-57.13v-20.29c-9.71 25.02-22.25 40.57-35.74 41.58z"/>
				<path id="&lt;Path&gt;" class="s20" d="m785.48 612.63c13.23 0.99 25.07-12.19 33.96-34.42 8.77 23.73 20.1 38.47 32.3 39.38 11.97 0.9 22.7-11.7 30.76-32.9 7.96 22.57 18.25 36.57 29.34 37.4 10.89 0.82 20.65-11.24 28-31.51v17.52c0 17.74-1.93 35.07-5.75 48.77-5.64 20.27-13.48 32.8-22.25 32.62-8.9-0.18-17.07-13.38-23.09-34.78-4.14-14.69-6.25-33.08-6.25-51.66 0 18.58-2.12 36.72-6.31 51.07-6.2 21.23-14.81 34.35-24.45 34.15-9.79-0.19-18.79-14.05-25.42-36.52-4.55-15.44-6.88-34.76-6.88-54.27 0 19.52-2.34 38.56-6.96 53.61-6.84 22.29-16.34 36.06-27 35.84-10.82-0.21-20.77-14.8-28.11-38.46-5.05-16.26-7.63-36.6-7.63-57.13v-20.29c9.72 25.02 22.26 40.57 35.74 41.58z"/>
			</g>
			<path id="&lt;Path&gt;" class="s21" d="m160.7 333.58h226.08c0 0-6.89-21.65-30.17-16.86-4.18-25.95-40.83-39.4-60-25.22-17.49-36.69-69.58-22.6-74.67 20.49-36.39-7.96-61.24 21.59-61.24 21.59z"/>
			<path id="&lt;Path&gt;" class="s21" d="m708.19 298.07h247.71c0 0-17.12-37.89-48.84-30.32-8.31-31.97-52.9-33.86-69.39-1.77-34.36-18.39-61.88 11.81-61.88 11.81 0 0-38.09-7.27-67.6 20.28z"/>
			<g id="&lt;Group&gt;">
				<path id="&lt;Path&gt;" class="s22" d="m613.03 787.35c0 13.68-61.58 24.76-137.54 24.76-75.96 0-137.54-11.08-137.54-24.76 0-13.68 61.58-24.76 137.54-24.76 75.96 0 137.54 11.08 137.54 24.76z"/>
				<g id="&lt;Group&gt;">
					<path id="&lt;Path&gt;" class="s23" d="m475.77 427.86v-0.02q-0.14 0.01-0.28 0.01-0.14 0-0.27-0.01v0.02c-49.75 0.27-93.56 37.98-93.56 37.98 4.61 61.39 35.4 121.66 35.4 121.66h116.87c0 0 30.79-60.27 35.39-121.66 0 0-43.8-37.71-93.55-37.98z"/>
					<path id="&lt;Path&gt;" class="s21" d="m537.93 537.95v-100.99l-62.44-16.7-62.44 16.7v100.99l-47.41 243.53c23.27 11.68 49.7 19.7 109.85 19.7 60.15 0 86.58-8.02 109.85-19.7z"/>
					<path id="&lt;Path&gt;" class="s24" d="m542.79 564.98h-135l-20.54 105.51c26.45 5.31 55.42 7.89 85.78 7.07 32.03-0.86 62.33-5.42 89.59-12.82l-16.61-85.32z"/>
					<g id="&lt;Group&gt;">
						<g id="&lt;Group&gt;">
							<g id="&lt;Group&gt;">
								<path id="&lt;Path&gt;" class="s25" d="m606.2 468.64c0 0 7.8-20.06-0.83-51.75l-20.28 13.51c0 0 5.95 36.15 21.11 38.24z"/>
								<path id="&lt;Path&gt;" class="s26" d="m593.1 414.45l14.81-10.33c0 0 0.5-2.15 2.49-3.31 1.99-1.16 10.94-2.95 10.94-2.95l4.48-8.92h10.25l-3.25 13.9-19.88 9.91-19.84 24.21c0 0-4.37-17.99 0-22.51z"/>
								<path id="&lt;Path&gt;" class="s27" d="m628.27 388.94l-3.14 10.19"/>
								<path id="&lt;Path&gt;" class="s27" d="m630.95 388.94l-3.14 10.19"/>
								<path id="&lt;Path&gt;" class="s27" d="m633.63 388.94l-3.14 10.19"/>
								<path id="&lt;Path&gt;" class="s24" d="m570.61 427.52l22.49-13.07c0 0-1.36 24.63 13.1 54.19 0 0-35.54 12.62-47.18 15.76-14.6 3.93-33.26-10.68-33.26-10.68z"/>
								<path id="&lt;Path&gt;" class="s23" d="m567.65 433.39c0 0-7.73 15.32-10.9 24.48-3.17 9.16-10.57 16.02-23.07 12.68-12.5-3.35 33.97-37.16 33.97-37.16z"/>
								<path id="&lt;Path&gt;" class="s28" d="m569.07 463.15c0 0 0.18-17.61 2.29-32.04"/>
							</g>
						</g>
						<g id="&lt;Group&gt;">
							<g id="&lt;Group&gt;">
								<path id="&lt;Path&gt;" class="s25" d="m344.78 468.64c0 0-7.8-20.06 0.83-51.75l20.28 13.51c0 0-5.94 36.15-21.11 38.24z"/>
								<path id="&lt;Path&gt;" class="s26" d="m357.89 414.45l-14.81-10.33c0 0-0.5-2.15-2.49-3.31-1.99-1.16-10.95-2.95-10.95-2.95l-4.47-8.92h-10.26l3.25 13.9 19.89 9.91 19.84 24.21c0 0 4.36-17.99 0-22.51z"/>
								<path id="&lt;Path&gt;" class="s27" d="m322.71 388.94l3.14 10.19"/>
								<path id="&lt;Path&gt;" class="s27" d="m320.03 388.94l3.15 10.19"/>
								<path id="&lt;Path&gt;" class="s27" d="m317.36 388.94l3.14 10.19"/>
								<path id="&lt;Path&gt;" class="s24" d="m380.37 427.52l-22.48-13.07c0 0 1.35 24.63-13.11 54.19 0 0 35.54 12.62 47.19 15.76 14.59 3.93 33.26-10.68 33.26-10.68z"/>
								<path id="&lt;Path&gt;" class="s23" d="m383.33 433.39c0 0 7.74 15.32 10.91 24.48 3.17 9.16 10.56 16.02 23.06 12.68 12.5-3.35-33.97-37.16-33.97-37.16z"/>
								<path id="&lt;Path&gt;" class="s28" d="m381.91 463.15c0 0-0.17-17.61-2.29-32.04"/>
							</g>
						</g>
					</g>
					<path id="&lt;Path&gt;" class="s21" d="m542.56 537.84v-108.48l-67.07-17.93-67.07 17.93v108.48l-23.14 118.89c4.53 1.13 9.17 2.15 13.86 3.11l17.07-82.95-5.84 59.03c-1.45 14.6 9.07 27.79 23.66 29.33 13.41 1.43 27.27 2.18 41.46 2.18 32.23 0 62.79-3.84 90.22-10.7z"/>
					<path id="&lt;Path&gt;" class="s24" d="m475.49 411.43l-67.07 17.93v40.71c23.4 24.15 54.6 44.73 67.07 44.73 12.48 0 43.68-20.58 67.07-44.73v-40.71z"/>
					<path id="&lt;Path&gt;" class="s21" d="m553.02 421.84l-14.54-12.22c0 0-18.06-48.01-34.36-70.7 0 0-3.52-50.14-28.63-50.14-25.11 0-28.63 50.14-28.63 50.14-16.3 22.69-34.36 70.7-34.36 70.7l-14.53 12.22-17.62 5.68c15.41 34.91 76.2 79.43 95.14 79.43 18.94 0 79.73-44.52 95.15-79.43z"/>
					<path id="&lt;Path&gt;" class="s24" d="m413.05 411.78c0 0 20.58 54.06 58.73 54.06 38.14 0 60.64-31.83 60.64-31.83 0 0-31.93 27.66-59.68 24.97-27.76-2.69-59.69-47.2-59.69-47.2z"/>
					<g id="&lt;Group&gt;">
						<path id="&lt;Path&gt;" class="s26" d="m475.49 302.26c-6.61 0.31-11.08 5.54-13.32 8.98-1.13 1.74-1.64 3.76-1.51 5.8 0.26 4.29 0.8 12.33 1.26 15.57 0.64 4.52 9.27 11.21 13.57 11.21 4.3 0 12.93-6.69 13.57-11.21 0.46-3.24 1-11.28 1.27-15.57 0.13-2.04-0.39-4.06-1.51-5.8-2.25-3.44-6.71-8.67-13.33-8.98z"/>
						<path id="&lt;Path&gt;" class="s24" d="m475.49 307.86c4.37 0 8.5 0.66 12.23 1.82-2.47-3.28-6.55-7.16-12.23-7.42-5.67 0.26-9.76 4.14-12.22 7.42 3.73-1.16 7.86-1.82 12.22-1.82z"/>
						<g id="&lt;Group&gt;">
							<path id="&lt;Path&gt;" class="s29" d="m463.36 317.22c0 0 3.62-1.51 8.36 0"/>
							<path id="&lt;Path&gt;" class="s29" d="m487.62 317.22c0 0-3.62-1.51-8.35 0"/>
						</g>
						<g id="&lt;Group&gt;">
							<path id="&lt;Path&gt;" class="s30" d="m469.34 322.08c0 0.97-0.79 1.76-1.76 1.76-0.98 0-1.77-0.79-1.77-1.76 0-0.98 0.79-1.77 1.77-1.77 0.97 0 1.76 0.79 1.76 1.77z"/>
							<path id="&lt;Path&gt;" class="s30" d="m485.17 322.08c0 0.97-0.79 1.76-1.76 1.76-0.97 0-1.76-0.79-1.76-1.76 0-0.98 0.79-1.77 1.76-1.77 0.97 0 1.76 0.79 1.76 1.77z"/>
						</g>
						<path id="&lt;Path&gt;" class="s31" d="m475.49 318.33l-1.92 8.67 4.14 0.07"/>
						<path id="&lt;Path&gt;" class="s21" d="m472.55 330.07h5.88c0 0-1.02 6.01-2.94 6.01-1.92 0-2.94-6.01-2.94-6.01z"/>
					</g>
				</g>
			</g>
			<g id="&lt;Group&gt;">
				<path id="&lt;Path&gt;" class="s22" d="m1299.01 797.85c0 13.68-61.58 24.77-137.54 24.77-75.96 0-137.54-11.09-137.54-24.77 0-13.67 61.58-24.76 137.54-24.76 75.96 0 137.54 11.09 137.54 24.76z"/>
				<g id="&lt;Group&gt;">
					<path id="&lt;Path&gt;" class="s24" d="m1161.43 299.06l-109.08 78.3c27.15 123.84 109.08 247.33 109.08 247.33 0 0 81.93-123.49 109.08-247.33z"/>
					<path id="&lt;Path&gt;" class="s32" d="m1143.06 231.89c0 0-11.12-19.89 0-23.71-1.12-9.44 9.22-13.14 20.45-10.11 11.24 3.03 19.35 7.78 19.77 16.39 0.48 9.68-3.59 17.43-3.59 17.43l-18.97 20.63z"/>
					<g id="&lt;Group&gt;">
						<path id="&lt;Path&gt;" class="s33" d="m1149.2 233.76c0.5 3.62-1.56 6.91-4.62 7.33-3.05 0.43-6.1-3.26-6.6-6.89-0.51-3.62 1.38-6.24 4.76-6.23 3.09 0.01 5.95 2.17 6.46 5.79z"/>
						<path id="&lt;Path&gt;" class="s33" d="m1173.48 233.76c-0.51 3.62 1.56 6.91 4.61 7.33 3.06 0.43 6.1-3.26 6.61-6.89 0.51-3.62-1.38-6.24-4.77-6.23-3.08 0.01-5.94 2.17-6.45 5.79z"/>
					</g>
					<path id="&lt;Path&gt;" class="s21" d="m1223.71 423.95l12.16-77.77h-74.44-74.44l12.16 77.77-43.36 367.36c24.6 13.65 67.8 15.82 105.64 15.82 37.84 0 81.04-2.17 105.64-15.82z"/>
					<path id="&lt;Path&gt;" class="s24" d="m1055.79 791.31c4.63 2.56 9.92 4.73 15.7 6.54l38.23-254.81-26.1 12.48z"/>
					<path id="&lt;Path&gt;" class="s23" d="m1236.44 531.81l-2.19-18.57-154.18 72.35-7.02 59.5c86.2-40.42 148.29-98.44 163.39-113.28z"/>
					<path id="&lt;Path&gt;" class="s34" d="m1265.72 346.18l-16.44-38.71c-5.56-13.1-16.65-23.05-30.28-27.18l-43.12-13.05-2.29-20.88-12.16 1.54-12.16-1.54-2.29 20.88-43.12 13.05c-13.63 4.13-24.72 14.08-30.28 27.18l-16.44 38.71z"/>
					<path id="&lt;Path&gt;" class="s24" d="m1060.92 329.64l12.48-30.01c3.56-8.55 10.66-15.13 19.45-18.03l30.03-9.9c0 0 31.94 21.36 67.04 26.22 0 0-78.67 44.41-129 31.72z"/>
					<path id="&lt;Path&gt;" class="s35" d="m1120.24 276.43c0 0 17.52 10.55 31.16 16.47"/>
					<path id="&lt;Path&gt;" class="s23" d="m1152.14 287c-31.04 15-72.58 23.99-84.45 26.37l-6.77 16.27c50.33 12.69 129-31.72 129-31.72-13.64-1.89-26.78-6.27-37.78-10.92z"/>
					<path id="&lt;Path&gt;" class="s33" d="m1265.72 346.18l8.73 20.36-28.78 41.05-28.54-61.41z"/>
					<path id="&lt;Path&gt;" class="s33" d="m1057.22 346.18l-8.73 20.36 28.78 41.05 28.54-61.41z"/>
					<path id="&lt;Path&gt;" class="s21" d="m1239.68 526.26l-12.45-105.46 12.79-81.79h-78.3-78.29l12.78 81.79-24.72 209.52c68.03-25.46 141.85-82.62 168.19-104.06z"/>
					<path id="&lt;Path&gt;" class="s23" d="m1161.72 339.01h-78.29l8.92 57.07c15.8-0.73 85.82-4.94 142.47-23.81l5.2-33.26z"/>
					<path id="&lt;Path&gt;" class="s24" d="m1227.97 427.03c-11.21 8.76-23.06 16.85-35.06 24.57-13.35 8.55-27.03 16.56-40.89 24.22-7.01 3.69-13.93 7.54-21.04 11.03l-10.61 5.33-10.71 5.11-5.36 2.55-5.42 2.43-10.83 4.85q-1.06 0.45-2.13 0.9l-1.4 11.92q3.89-1.81 7.75-3.68l10.75-5.35 5.37-2.67 5.31-2.8 10.62-5.6 10.49-5.82c7.03-3.82 13.86-7.98 20.77-12 13.68-8.29 27.13-16.92 40.23-26.08 11.18-7.86 22.13-15.99 32.64-24.79z"/>
					<path id="&lt;Path&gt;" class="s33" d="m1149.27 246.36l-0.9 8.24c4.07 5.29 13.76 15.1 27.34 11.11l-2.12-19.35-12.16 1.54z"/>
					<path id="&lt;Path&gt;" class="s34" d="m1175.77 216.81c0 0-19.02 4.09-27.64-1.87-0.11 5.48-2.52 9.16-4.16 11.04 0.98 7.26 2.07 15.13 2.75 19.33 0.78 4.84 4.86 7.75 8.51 9.41 3.89 1.77 8.33 1.77 12.21 0 3.66-1.66 7.74-4.57 8.52-9.41 0.72-4.47 1.91-13.08 2.93-20.69-2.55-3.44-3.12-7.81-3.12-7.81z"/>
					<g id="&lt;Group&gt;">
						<g id="&lt;Group&gt;">
							<path id="&lt;Path&gt;" class="s36" d="m1149.64 230.46c0 0 2.53 2.34 7.16 0"/>
							<path id="&lt;Path&gt;" class="s36" d="m1173.03 230.46c0 0-2.53 2.34-7.16 0"/>
						</g>
						<path id="&lt;Path&gt;" class="s36" d="m1160.13 227.97v4.95q0 0.59-0.18 1.15l-1.25 3.88c0 0 2.39 0.67 4.73 0"/>
						<path id="&lt;Path&gt;" class="s36" d="m1155.9 241.58c0 0 5.82 2.39 10.88 0"/>
					</g>
					<g id="&lt;Group&gt;">
						<path id="&lt;Path&gt;" class="s37" d="m1148.66 225.38c0 0 4.45-1.49 9.14 0.36"/>
						<path id="&lt;Path&gt;" class="s37" d="m1174.02 225.38c0 0-4.46-1.49-9.15 0.36"/>
					</g>
					<path id="&lt;Path&gt;" class="s21" d="m1062.83 319.43c0 0 74-15.95 125.83-49.88l31.34 9.32c13.43 3.99 24.42 13.7 30.03 26.53l17.66 40.38c0 0-113.42 60.56-232.59 45.73z"/>
					<path id="&lt;Path&gt;" class="s38" d="m1250.38 328.32c0 0-112.43 44.93-205.71 38.31"/>
					<g id="&lt;Group&gt;">
						<path id="&lt;Path&gt;" class="s34" d="m1071.7 383.81c-13-23.05-48.62-81.97-48.62-81.97 0 0 3.09-5.51-17.19-14.98l-8.16-16.1h-13.44l4.73 20.1c0.36 1.54 1.27 2.89 2.56 3.8l18.28 12.92c0 0 20.72 76.48 26.01 95 5.29 18.51 20 23.36 32.19 16.32 11.59-6.7 12.99-18.53 3.64-35.09z"/>
						<path id="&lt;Path&gt;" class="s36" d="m1001.24 286.93l-5.74-16.17"/>
						<path id="&lt;Path&gt;" class="s36" d="m996.44 286.93l-4.85-16.17"/>
						<path id="&lt;Path&gt;" class="s36" d="m992.45 286.93l-4.78-16.17"/>
					</g>
					<path id="&lt;Path&gt;" class="s38" d="m1199.71 278.85c0 0-59.84 39.69-140.3 49.47"/>
					<g id="&lt;Group&gt;">
						<path id="&lt;Path&gt;" class="s34" d="m1251.24 383.81c13-23.05 48.62-81.97 48.62-81.97 0 0-3.09-5.51 17.19-14.98l8.16-16.1h13.44l-4.73 20.1c-0.36 1.54-1.27 2.89-2.56 3.8l-18.28 12.92c0 0-20.72 76.48-26.01 95-5.29 18.51-20 23.36-32.19 16.32-11.6-6.7-12.99-18.53-3.64-35.09z"/>
						<path id="&lt;Path&gt;" class="s36" d="m1321.7 286.93l5.74-16.17"/>
						<path id="&lt;Path&gt;" class="s36" d="m1326.5 286.93l4.85-16.17"/>
						<path id="&lt;Path&gt;" class="s36" d="m1330.49 286.93l4.78-16.17"/>
					</g>
				</g>
			</g>
			<g id="&lt;Group&gt;">
				<path id="&lt;Path&gt;" class="s22" d="m1028.91 744.98c0 10.47-42.06 18.96-93.95 18.96-51.88 0-93.95-8.49-93.95-18.96 0-10.47 42.07-18.96 93.95-18.96 51.89 0 93.95 8.49 93.95 18.96z"/>
				<g id="&lt;Group&gt;">
					<path id="&lt;Path&gt;" class="s21" d="m1002.54 742.68c0-9.19-26.18-255.17-26.18-255.17l-41.39-8.24v-0.01h-0.01-0.01v0.01l-41.39 8.24c0 0-26.17 245.98-26.17 255.17 0 9.19 34.76 13.99 67.56 13.99q0.01 0 0.01 0 0.01 0 0.01 0c32.8 0 67.57-4.8 67.57-13.99z"/>
					<path id="&lt;Path&gt;" class="s23" d="m987.84 596.24c-5.97-56.94-11.48-108.73-11.48-108.73l-41.39-8.24v-0.01h-0.01-0.01v0.01l-41.39 8.24c0 0-15.76 148.18-22.82 218.81 55.69-27.11 96.37-78.93 117.1-110.08z"/>
					<path id="&lt;Path&gt;" class="s39" d="m947 364.12c-2.47-2.77-6.58-5.5-12.03-5.5-5.45 0-9.56 2.73-12.03 5.5-2.73 3.05-3.9 7.37-3.32 11.59l1.36 9.87 13.99 1.34 14-1.34 1.35-9.87c0.58-4.22-0.58-8.54-3.32-11.59z"/>
					<g id="&lt;Group&gt;">
						<path id="&lt;Path&gt;" class="s40" d="m924.36 384.57c0.84 2.7-0.06 5.38-2.01 5.99-1.96 0.61-4.23-1.08-5.07-3.78-0.84-2.7 0.06-5.39 2.01-6 1.96-0.61 4.23 1.09 5.07 3.79z"/>
						<path id="&lt;Path&gt;" class="s40" d="m945.58 384.57c-0.84 2.7 0.06 5.38 2.01 5.99 1.96 0.61 4.23-1.08 5.07-3.78 0.84-2.7-0.06-5.39-2.01-6-1.96-0.61-4.23 1.09-5.07 3.79z"/>
					</g>
					<path id="&lt;Path&gt;" class="s41" d="m982.96 432.59c-7.11-12.02-26.67-19.25-34.68-21.78-2.15-0.68-3.73-2.48-4.1-4.67l-1.41-8.42h-15.59l-1.42 8.42c-0.37 2.19-1.95 3.99-4.1 4.67-8.01 2.53-27.57 9.76-34.68 21.78-10.23 17.28-19.05 69.46-19.05 69.46h134.09c0 0-8.83-52.18-19.06-69.46z"/>
					<path id="&lt;Path&gt;" class="s21" d="m991.31 585.34c-6.09-58.02-11.49-108.74-11.49-108.74l-44.85-8.93h-0.01-0.01l-44.85 8.93c0 0-14.33 134.73-22.62 216.2 60.03-24.39 104.22-79.34 123.83-107.46z"/>
					<path id="&lt;Path&gt;" class="s23" d="m934.96 467.67h-0.01l-44.85 8.93c0 0-1.95 18.34-4.83 45.56 37.46-10.61 73.73-30.76 94.75-43.73-0.13-1.18-0.2-1.83-0.2-1.83l-44.85-8.93z"/>
					<path id="&lt;Path&gt;" class="s24" d="m946.94 422.63c-7.36 0.12-23.08-6.33-31.99-10.29-9.71 3.75-23.34 10.47-29.12 20.24-2.85 4.83-5.6 12.28-8.1 20.58 21.9-8.55 77.77-30.69 69.21-30.53z"/>
					<path id="&lt;Path&gt;" class="s23" d="m883.43 437.32c-2 4.42-3.92 9.9-5.7 15.84 21.9-8.55 77.77-30.69 69.21-30.54-4.18 0.08-11.04-1.97-17.82-4.48-14.97 7.4-42.63 18.01-45.69 19.18z"/>
					<path id="&lt;Path&gt;" class="s21" d="m882.17 438.26c-9.18 21.88-14.76 65.44-14.76 65.44h24.93c24.35-7.35 67.94-21.8 103.64-40.61-3.2-12.39-7.05-24.54-11.1-31.4-6.44-10.89-22.75-17.98-32.3-21.35-14.16 6.48-49.89 22.41-70.41 27.92z"/>
					<path id="&lt;Path&gt;" class="s24" d="m933.71 449.42c10.36-4.19 20.5-8.92 30.44-14.01l7.41-3.9 7.28-4.16 1.81-1.04q-0.44-0.44-0.89-0.87l-1.53 0.85-7.3 4.03-7.45 3.77c-9.97 4.92-20.13 9.47-30.51 13.49q-15.53 6.11-31.46 11.07c-9.09 2.82-18.29 5.37-27.52 7.55q-0.36 1.6-0.69 3.19c9.79-2.42 19.41-5.25 28.97-8.36q15.93-5.23 31.44-11.61z"/>
					<path id="&lt;Path&gt;" class="s24" d="m993.19 452.99c-7.89 4.18-15.85 8.18-23.99 11.84-11.18 5.1-22.5 9.9-33.99 14.26q-17.21 6.61-34.75 12.29c-10.81 3.48-21.75 6.74-32.68 9.6-0.24 1.73-0.37 2.72-0.37 2.72h11.81q11.49-3.62 22.83-7.65 17.48-6.23 34.59-13.39c11.42-4.72 22.67-9.88 33.75-15.34 7.93-3.85 15.7-8.04 23.36-12.38q-0.28-0.98-0.56-1.95z"/>
					<path id="&lt;Path&gt;" class="s40" d="m926.53 401.58c2.43 3.68 8.89 11.32 18.07 5.94q-0.29-0.66-0.42-1.38l-1.41-8.42h-15.59z"/>
					<path id="&lt;Path&gt;" class="s42" d="m945.31 373.07c-0.25-1.47-1.7-2.39-3.12-1.97-1.9 0.56-4.56 1.17-7.22 1.17-2.66 0-5.31-0.61-7.21-1.17-1.43-0.42-2.88 0.5-3.13 1.97-0.37 2.13-1.08 4.91-2.43 6.41v7.92c0 2.67 0.67 5.31 2.03 7.58 2.08 3.47 5.71 7.88 10.74 7.88 5.03 0 8.66-4.41 10.74-7.88 1.36-2.27 2.03-4.91 2.03-7.58v-7.92c-1.34-1.5-2.06-4.28-2.43-6.41z"/>
					<g id="&lt;Group&gt;">
						<path id="&lt;Path&gt;" class="s43" d="m926.37 381.94c0 0 2.67 1.94 6.24 0.56"/>
						<path id="&lt;Path&gt;" class="s43" d="m943.57 381.94c0 0-2.66 1.94-6.24 0.56"/>
					</g>
					<g id="&lt;Group&gt;">
						<path id="&lt;Path&gt;" class="s44" d="m926.2 378.55c0 0 2.64-1.52 6.92 0.62"/>
						<path id="&lt;Path&gt;" class="s44" d="m943.74 378.55c0 0-2.63-1.52-6.92 0.62"/>
					</g>
					<path id="&lt;Path&gt;" class="s43" d="m934.18 380.96l0.28 1.51-0.62 6.56h2.98"/>
					<path id="&lt;Path&gt;" class="s21" d="m930.97 391.05h8c0 0-1.31 4.59-4 4.59-2.69 0-4-4.59-4-4.59z"/>
					<g id="&lt;Group&gt;">
						<g id="&lt;Group&gt;">
							<path id="&lt;Path&gt;" class="s42" d="m916.23 455.75c0 0-1.7-6.91 0-12.31l1.86 0.53c0 0-0.36 2.26-0.27 3.25 0 0 1.04-6.86 3.83-9.25l9.02 3.16c0 0-2.48 6.67-3.06 11.91-0.59 5.23-3.93 6.99-3.93 6.99 0 0-20.65 36.41-26.76 47.53-6.11 11.12-20.73 12.78-26.1 6.18-5.38-6.6-5.79-18.4 9.12-29.4 13.09-9.65 36.29-28.59 36.29-28.59z"/>
							<path id="&lt;Path&gt;" class="s45" d="m919.78 448.92c0 0 1.13-6.73 3.83-10.18"/>
							<path id="&lt;Path&gt;" class="s45" d="m922.12 449.68c0 0 1.13-6.73 3.83-10.18"/>
							<path id="&lt;Path&gt;" class="s45" d="m924.45 450.44c0 0 1.13-6.73 3.83-10.18"/>
						</g>
						<g id="&lt;Group&gt;">
							<path id="&lt;Path&gt;" class="s42" d="m953.71 455.75c0 0 1.71-6.91 0-12.31l-1.86 0.53c0 0 0.36 2.26 0.27 3.25 0 0-1.03-6.86-3.83-9.25l-9.02 3.16c0 0 2.48 6.67 3.07 11.91 0.58 5.23 3.92 6.99 3.92 6.99 0 0 20.65 36.41 26.76 47.53 6.11 11.12 20.73 12.78 26.11 6.18 5.37-6.6 5.78-18.4-9.13-29.4-13.09-9.65-36.29-28.59-36.29-28.59z"/>
							<path id="&lt;Path&gt;" class="s45" d="m950.16 448.92c0 0-1.13-6.73-3.83-10.18"/>
							<path id="&lt;Path&gt;" class="s45" d="m947.83 449.68c0 0-1.13-6.73-3.84-10.18"/>
							<path id="&lt;Path&gt;" class="s45" d="m945.49 450.44c0 0-1.13-6.73-3.83-10.18"/>
						</g>
					</g>
				</g>
			</g>
		</g>
	</g>
</svg>